<svg width="24" height="24" viewBox="0 0 24 24" fill="none" xmlns="http://www.w3.org/2000/svg">
<rect width="24" height="24" fill="white"/>
<path d="M21.5 9.94001C21.5 11.2769 20.9728 12.5827 20.128 13.8147C19.2836 15.0462 18.1408 16.1759 16.9598 17.1492C14.8599 18.8797 12.689 20.0754 12 20.4376C11.311 20.0754 9.14014 18.8797 7.04024 17.1492C5.85919 16.1759 4.71636 15.0462 3.87197 13.8147C3.02725 12.5827 2.5 11.2769 2.5 9.94001C2.5 7.09039 3.97448 5.24678 5.76083 4.68569C7.5382 4.12743 9.80107 4.78549 11.4962 7.31873C11.7372 7.67899 12.2717 7.67384 12.5062 7.31C14.1318 4.78756 16.3915 4.12619 18.189 4.68623C19.9968 5.24943 21.5 7.09667 21.5 9.94001Z" stroke="#222222"/>
</svg>
