<svg width="24" height="24" viewBox="0 0 24 24" fill="none" xmlns="http://www.w3.org/2000/svg">
<rect width="24" height="24" fill="white"/>
<path d="M13.8418 3.43253C12.7585 2.58994 11.2415 2.58994 10.1582 3.43253L4.15818 8.09919C3.42742 8.66756 3 9.54148 3 10.4673V19C3 20.1046 3.89543 21 5 21H8C8.55228 21 9 20.5523 9 20V15C9 13.8954 9.89543 13 11 13H13C14.1046 13 15 13.8954 15 15V20C15 20.5523 15.4477 21 16 21H19C20.1046 21 21 20.1046 21 19V10.4673C21 9.54148 20.5726 8.66756 19.8418 8.0992L13.8418 3.43253Z" stroke="#222222"/>
</svg>
