<svg width="24" height="24" viewBox="0 0 24 24" fill="none" xmlns="http://www.w3.org/2000/svg">
<rect width="24" height="24" fill="white"/>
<path d="M9.10841 13.609L9.28117 14.0782L9.28117 14.0782L9.10841 13.609ZM4.23764 17.9385L3.78443 17.7273L3.78443 17.7273L4.23764 17.9385ZM4.1707 18.0863L4.62836 18.2877L4.62836 18.2877L4.1707 18.0863ZM20.9344 18.0863L21.3921 17.885L21.3921 17.885L20.9344 18.0863ZM20.8675 17.9385L21.3207 17.7273L21.3207 17.7273L20.8675 17.9385ZM18.9165 15.3431L19.2487 14.9694L19.2487 14.9694L18.9165 15.3431ZM17.0526 8C17.0526 10.4853 15.0378 12.5 12.5526 12.5V13.5C15.5901 13.5 18.0526 11.0376 18.0526 8H17.0526ZM12.5526 3.5C15.0378 3.5 17.0526 5.51472 17.0526 8H18.0526C18.0526 4.96243 15.5901 2.5 12.5526 2.5V3.5ZM8.05256 8C8.05256 5.51472 10.0673 3.5 12.5526 3.5V2.5C9.51499 2.5 7.05256 4.96243 7.05256 8H8.05256ZM12.5526 12.5C10.0673 12.5 8.05256 10.4853 8.05256 8H7.05256C7.05256 11.0376 9.51499 13.5 12.5526 13.5V12.5ZM12.5526 12.5C11.3127 12.5 10.0838 12.717 8.93565 13.1398L9.28117 14.0782C10.3169 13.6968 11.4287 13.5 12.5526 13.5V12.5ZM8.93565 13.1398C7.7875 13.5625 6.74074 14.1834 5.85642 14.9694L6.52078 15.7169C7.30791 15.0172 8.24546 14.4595 9.28117 14.0782L8.93565 13.1398ZM5.85642 14.9694C4.97198 15.7556 4.26683 16.6921 3.78443 17.7273L4.69085 18.1497C5.11304 17.2437 5.73376 16.4164 6.52078 15.7169L5.85642 14.9694ZM3.78443 17.7273C3.76004 17.7797 3.73624 17.8322 3.71303 17.885L4.62836 18.2877C4.64866 18.2416 4.66949 18.1956 4.69085 18.1497L3.78443 17.7273ZM3.71303 17.885C3.29267 18.8405 3.52888 19.773 4.11391 20.4412C4.68677 21.0956 5.58963 21.5 6.55256 21.5V20.5C5.85864 20.5 5.23695 20.2059 4.8663 19.7825C4.5078 19.3731 4.3815 18.8488 4.62836 18.2877L3.71303 17.885ZM6.55256 21.5H18.5526V20.5H6.55256V21.5ZM18.5526 21.5C19.5155 21.5 20.4183 21.0956 20.9912 20.4412C21.5762 19.773 21.8124 18.8405 21.3921 17.885L20.4768 18.2877C20.7236 18.8488 20.5973 19.3731 20.2388 19.7825C19.8682 20.2059 19.2465 20.5 18.5526 20.5V21.5ZM21.3921 17.885C21.3689 17.8322 21.3451 17.7797 21.3207 17.7273L20.4143 18.1497C20.4356 18.1956 20.4565 18.2416 20.4768 18.2877L21.3921 17.885ZM21.3207 17.7273C20.8383 16.6921 20.1331 15.7556 19.2487 14.9694L18.5843 15.7168C19.3714 16.4164 19.9921 17.2437 20.4143 18.1497L21.3207 17.7273ZM19.2487 14.9694C18.3644 14.1834 17.3176 13.5625 16.1695 13.1398L15.824 14.0782C16.8597 14.4595 17.7972 15.0172 18.5843 15.7168L19.2487 14.9694ZM16.1695 13.1398C15.0213 12.717 13.7925 12.5 12.5526 12.5V13.5C13.6765 13.5 14.7882 13.6968 15.824 14.0782L16.1695 13.1398Z" fill="#222222"/>
</svg>
