<svg xmlns="http://www.w3.org/2000/svg" width="30" height="30" viewBox="0 0 30 30">
    <g>
        <path fill="#fff" d="M0 0H30V30H0z" transform="translate(0 -.104) translate(0 .104)"/>
        <g>
            <g>
                <path fill="#d3d8e0" stroke="#d3d8e0" stroke-width="0.3px" d="M33.02 31.68V20.952A3.964 3.964 0 0 0 29.067 17H14.952A3.964 3.964 0 0 0 11 20.952V31.68a3.964 3.964 0 0 0 3.952 3.952h14.115a3.964 3.964 0 0 0 3.953-3.952zM14.952 18.129h14.115a2.831 2.831 0 0 1 2.823 2.823v5.957l-2.682-2.315a3.379 3.379 0 0 0-4.545.113l-1.779 1.666L21.7 24.9a3.4 3.4 0 0 0-4.376-.762l-5.194 3.134v-6.32a2.831 2.831 0 0 1 2.822-2.823zM12.129 31.68V28.6l5.759-3.5a2.266 2.266 0 0 1 2.936.508l7.2 8.893H14.952a2.831 2.831 0 0 1-2.823-2.821zm17.333 2.795l-5.872-7.227 1.835-1.75a2.25 2.25 0 0 1 3.021-.056L31.89 28.4v3.28a2.827 2.827 0 0 1-2.427 2.794z" transform="translate(0 -.104) translate(4.181 5.854) translate(-11 -17)"/>
            </g>
        </g>
    </g>
</svg>
