<svg width="24" height="24" viewBox="0 0 24 24" fill="none" xmlns="http://www.w3.org/2000/svg">
<rect width="24" height="24" fill="white"/>
<path fill-rule="evenodd" clip-rule="evenodd" d="M4.15818 8.09915C3.42742 8.66752 3 9.54143 3 10.4672V19C3 20.1045 3.89543 21 5 21L9 21V15C9 13.8954 9.89543 13 11 13H13C14.1046 13 15 13.8954 15 15V21L19 21C20.1046 21 21 20.1045 21 19V10.4672C21 9.54143 20.5726 8.66752 19.8418 8.09915L13.8418 3.43248C12.7585 2.58989 11.2415 2.58989 10.1582 3.43248L4.15818 8.09915Z" fill="#9B9BA0"/>
<path d="M4.15818 8.09915L3.54424 7.3098L3.54424 7.3098L4.15818 8.09915ZM5 21L5 20H5V21ZM9 21L9 22C9.26522 22 9.51957 21.8946 9.70711 21.7071C9.89464 21.5195 10 21.2652 10 21H9ZM15 21H14C14 21.2652 14.1054 21.5195 14.2929 21.7071C14.4804 21.8946 14.7348 22 15 22L15 21ZM19 21V20L19 20L19 21ZM19.8418 8.09915L20.4558 7.3098L20.4558 7.3098L19.8418 8.09915ZM13.8418 3.43248L13.2279 4.22183L13.2279 4.22183L13.8418 3.43248ZM10.1582 3.43248L10.7721 4.22183L10.7721 4.22183L10.1582 3.43248ZM4 10.4672C4 9.85002 4.28495 9.26741 4.77212 8.8885L3.54424 7.3098C2.56989 8.06762 2 9.23284 2 10.4672H4ZM4 19V10.4672H2V19H4ZM5 20C4.44771 20 4 19.5522 4 19H2C2 20.6568 3.34315 22 5 22V20ZM9 20L5 20L5 22L9 22L9 20ZM10 21V15H8V21H10ZM10 15C10 14.4477 10.4477 14 11 14V12C9.34315 12 8 13.3431 8 15H10ZM11 14H13V12H11V14ZM13 14C13.5523 14 14 14.4477 14 15H16C16 13.3431 14.6569 12 13 12V14ZM14 15V21H16V15H14ZM19 20L15 20L15 22L19 22L19 20ZM20 19C20 19.5522 19.5523 20 19 20V22C20.6569 22 22 20.6568 22 19H20ZM20 10.4672V19H22V10.4672H20ZM19.2279 8.8885C19.7151 9.26741 20 9.85002 20 10.4672H22C22 9.23284 21.4301 8.06762 20.4558 7.3098L19.2279 8.8885ZM13.2279 4.22183L19.2279 8.8885L20.4558 7.3098L14.4558 2.64313L13.2279 4.22183ZM10.7721 4.22183C11.4943 3.66011 12.5057 3.66011 13.2279 4.22183L14.4558 2.64313C13.0113 1.51967 10.9887 1.51967 9.54424 2.64313L10.7721 4.22183ZM4.77212 8.8885L10.7721 4.22183L9.54424 2.64313L3.54424 7.3098L4.77212 8.8885Z" fill="#9B9BA0"/>
</svg>
