<svg width="166" height="36" viewBox="0 0 166 36" fill="none" xmlns="http://www.w3.org/2000/svg">
<rect width="166" height="36" rx="7" fill="#CFEEDC"/>
<path d="M12.368 10.809V13.014C12.368 15.282 11.36 17.718 8.735 18.873L10.163 20.931C13.271 19.587 14.489 16.353 14.489 13.014V10.809H12.368ZM13.04 10.809V13.014C13.04 16.311 14.216 19.818 17.618 21.225L18.815 18.999C16.106 17.781 15.161 15.24 15.161 13.014V10.809H13.04ZM20.096 10.809V13.014C20.096 15.282 19.13 17.802 16.442 18.999L17.618 21.225C21.02 19.839 22.196 16.353 22.196 13.014V10.809H20.096ZM20.789 10.809V13.014C20.789 16.437 21.986 19.608 25.094 20.931L26.543 18.873C23.897 17.739 22.91 15.366 22.91 13.014V10.809H20.789ZM8.84 24.207V26.475H26.438V24.207H8.84Z" fill="#379237"/>
<path d="M29.9644 11.061V13.308H42.2914V11.061H29.9644ZM28.1794 24.27V26.538H45.7564V24.27H28.1794ZM34.3954 17.592V25.383H37.1884V17.592H34.3954ZM41.2834 11.061V12.93C41.2834 15.261 41.2834 18.075 40.5064 21.939L43.2994 22.254C44.0764 18.096 44.0764 15.366 44.0764 12.93V11.061H41.2834ZM73.8511 11.061V13.308H86.1781V11.061H73.8511ZM72.0661 24.27V26.538H89.6431V24.27H72.0661ZM78.2821 17.592V25.383H81.0751V17.592H78.2821ZM85.1701 11.061V12.93C85.1701 15.261 85.1701 18.075 84.3931 21.939L87.1861 22.254C87.9631 18.096 87.9631 15.366 87.9631 12.93V11.061H85.1701ZM144.868 12.489V14.673C144.868 17.865 143.293 21.498 140.08 23.01L141.655 25.215C145.225 23.535 147.073 19.062 147.073 14.673V12.489H144.868ZM145.456 12.489V14.673C145.456 18.81 147.262 23.073 150.832 24.732L152.365 22.527C149.173 21.057 147.661 17.613 147.661 14.673V12.489H145.456ZM140.836 11.292V13.581H151.504V11.292H140.836ZM152.932 9.423V28.869H155.746V9.423H152.932ZM155.116 16.836V19.146H158.56V16.836H155.116Z" fill="black"/>
<path d="M56.2547 10.809V13.014C56.2547 15.282 55.2467 17.718 52.6217 18.873L54.0497 20.931C57.1577 19.587 58.3757 16.353 58.3757 13.014V10.809H56.2547ZM56.9267 10.809V13.014C56.9267 16.311 58.1027 19.818 61.5047 21.225L62.7017 18.999C59.9927 17.781 59.0477 15.24 59.0477 13.014V10.809H56.9267ZM63.9827 10.809V13.014C63.9827 15.282 63.0167 17.802 60.3287 18.999L61.5047 21.225C64.9067 19.839 66.0827 16.353 66.0827 13.014V10.809H63.9827ZM64.6757 10.809V13.014C64.6757 16.437 65.8727 19.608 68.9807 20.931L70.4297 18.873C67.7837 17.739 66.7967 15.366 66.7967 13.014V10.809H64.6757ZM52.7267 24.207V26.475H70.3247V24.207H52.7267ZM124.71 10.809V13.014C124.71 15.282 123.702 17.718 121.077 18.873L122.505 20.931C125.613 19.587 126.831 16.353 126.831 13.014V10.809H124.71ZM125.382 10.809V13.014C125.382 16.311 126.558 19.818 129.96 21.225L131.157 18.999C128.448 17.781 127.503 15.24 127.503 13.014V10.809H125.382ZM132.438 10.809V13.014C132.438 15.282 131.472 17.802 128.784 18.999L129.96 21.225C133.362 19.839 134.538 16.353 134.538 13.014V10.809H132.438ZM133.131 10.809V13.014C133.131 16.437 134.328 19.608 137.436 20.931L138.885 18.873C136.239 17.739 135.252 15.366 135.252 13.014V10.809H133.131ZM121.182 24.207V26.475H138.78V24.207H121.182Z" fill="#54B435"/>
<path d="M106.021 17.739V19.965H113.014V17.739H106.021ZM96.6344 24.354V26.643H114.232V24.354H96.6344ZM103.984 20.784V25.383H106.756V20.784H103.984ZM106.021 10.998V18.873H108.814V13.245H112.909V10.998H106.021ZM97.9574 11.019V18.684H100.75V13.245H104.824V11.019H97.9574ZM97.9574 17.676V19.965H99.1964C101.527 19.965 103.207 19.902 105.139 19.524L104.95 17.235C103.06 17.613 101.443 17.676 99.1964 17.676H97.9574Z" fill="#D8B384"/>
</svg>
