<svg width="151" height="20" viewBox="0 0 151 20" fill="none" xmlns="http://www.w3.org/2000/svg">
<path d="M4.368 1.809H6.489V4.014C6.489 7.353 5.271 10.587 2.163 11.931L0.735 9.873C3.36 8.718 4.368 6.282 4.368 4.014V1.809ZM5.04 1.809H7.161V4.014C7.161 6.24 8.106 8.781 10.815 9.999L9.618 12.225C6.216 10.818 5.04 7.311 5.04 4.014V1.809ZM12.096 1.809H14.196V4.014C14.196 7.353 13.02 10.839 9.618 12.225L8.442 9.999C11.13 8.802 12.096 6.282 12.096 4.014V1.809ZM12.789 1.809H14.91V4.014C14.91 6.366 15.897 8.739 18.543 9.873L17.094 11.931C13.986 10.608 12.789 7.437 12.789 4.014V1.809ZM0.84 15.207H18.438V17.475H0.84V15.207Z" fill="#379237"/>
<path d="M21.9644 2.061H34.2914V4.308H21.9644V2.061ZM20.1794 15.27H37.7564V17.538H20.1794V15.27ZM26.3954 8.592H29.1884V16.383H26.3954V8.592ZM33.2834 2.061H36.0764V3.93C36.0764 6.366 36.0764 9.096 35.2994 13.254L32.5064 12.939C33.2834 9.075 33.2834 6.261 33.2834 3.93V2.061ZM65.8511 2.061H78.1781V4.308H65.8511V2.061ZM64.0661 15.27H81.6431V17.538H64.0661V15.27ZM70.2821 8.592H73.0751V16.383H70.2821V8.592ZM77.1701 2.061H79.9631V3.93C79.9631 6.366 79.9631 9.096 79.1861 13.254L76.3931 12.939C77.1701 9.075 77.1701 6.261 77.1701 3.93V2.061ZM136.868 3.489H139.073V5.673C139.073 10.062 137.225 14.535 133.655 16.215L132.08 14.01C135.293 12.498 136.868 8.865 136.868 5.673V3.489ZM137.456 3.489H139.661V5.673C139.661 8.613 141.173 12.057 144.365 13.527L142.832 15.732C139.262 14.073 137.456 9.81 137.456 5.673V3.489ZM132.836 2.292H143.504V4.581H132.836V2.292ZM144.932 0.423H147.746V19.869H144.932V0.423ZM147.116 7.836H150.56V10.146H147.116V7.836Z" fill="black"/>
<path d="M48.2547 1.809H50.3757V4.014C50.3757 7.353 49.1577 10.587 46.0497 11.931L44.6217 9.873C47.2467 8.718 48.2547 6.282 48.2547 4.014V1.809ZM48.9267 1.809H51.0477V4.014C51.0477 6.24 51.9927 8.781 54.7017 9.999L53.5047 12.225C50.1027 10.818 48.9267 7.311 48.9267 4.014V1.809ZM55.9827 1.809H58.0827V4.014C58.0827 7.353 56.9067 10.839 53.5047 12.225L52.3287 9.999C55.0167 8.802 55.9827 6.282 55.9827 4.014V1.809ZM56.6757 1.809H58.7967V4.014C58.7967 6.366 59.7837 8.739 62.4297 9.873L60.9807 11.931C57.8727 10.608 56.6757 7.437 56.6757 4.014V1.809ZM44.7267 15.207H62.3247V17.475H44.7267V15.207ZM116.71 1.809H118.831V4.014C118.831 7.353 117.613 10.587 114.505 11.931L113.077 9.873C115.702 8.718 116.71 6.282 116.71 4.014V1.809ZM117.382 1.809H119.503V4.014C119.503 6.24 120.448 8.781 123.157 9.999L121.96 12.225C118.558 10.818 117.382 7.311 117.382 4.014V1.809ZM124.438 1.809H126.538V4.014C126.538 7.353 125.362 10.839 121.96 12.225L120.784 9.999C123.472 8.802 124.438 6.282 124.438 4.014V1.809ZM125.131 1.809H127.252V4.014C127.252 6.366 128.239 8.739 130.885 9.873L129.436 11.931C126.328 10.608 125.131 7.437 125.131 4.014V1.809ZM113.182 15.207H130.78V17.475H113.182V15.207Z" fill="#54B435"/>
<path d="M98.0214 8.739H105.014V10.965H98.0214V8.739ZM88.6344 15.354H106.232V17.643H88.6344V15.354ZM95.9844 11.784H98.7564V16.383H95.9844V11.784ZM98.0214 1.998H104.909V4.245H100.814V9.873H98.0214V1.998ZM89.9574 2.019H96.8244V4.245H92.7504V9.684H89.9574V2.019ZM89.9574 8.676H91.1964C93.4434 8.676 95.0604 8.613 96.9504 8.235L97.1394 10.524C95.2074 10.902 93.5274 10.965 91.1964 10.965H89.9574V8.676Z" fill="#D8B384"/>
</svg>
